<svg viewBox="0 0 24 24" xmlns="http://www.w3.org/2000/svg" aria-hidden="true" role="img"><title>DevOps</title><g fill="currentColor"><path d="M8.5 6a4.5 4.5 0 100 9c1.66 0 3.13-.9 3.93-2.24l.14-.24.14.24A4.5 4.5 0 1015.5 6c-1.66 0-3.13.9-3.93 2.24l-.14.24-.14-.24A4.5 4.5 0 008.5 6zm0 2a2.5 2.5 0 110 5 2.5 2.5 0 010-5zm7 0a2.5 2.5 0 110 5 2.5 2.5 0 010-5z"/><path d="M12 1l1 .6v1.2l-1 .6-1-.6V1.6l1-.6zm0 20l1 .6v1.2l-1 .6-1-.6V21.6l1-.6zM3.5 12l.6-1h1.2l.6 1-.6 1H4.1l-.6-1zm15.2 0l.6-1h1.2l.6 1-.6 1h-1.2l-.6-1zM5.05 4.05l.85-.85 1.06.44.44 1.06-.85.85-1.06-.44-.44-1.06zm12.9 12.9l.85-.85 1.06.44.44 1.06-.85.85-1.06-.44-.44-1.06zM4.2 18.5l.44-1.06 1.06-.44.85.85-.44 1.06-1.06.44-.85-.85zm12.9-12.9l.44-1.06 1.06-.44.85.85-.44 1.06-1.06.44-.85-.85z"/></g></svg>